<svg xmlns="http://www.w3.org/2000/svg" baseProfile="basic" viewBox="0 0 100 100">
    <circle cx="52" cy="52" r="44" opacity=".35" />
    <circle cx="50" cy="50" r="44" fill="#f2f2f2" />
    <circle cx="50" cy="50" r="37.5" fill="#70bfff" />
    <path fill="#d9eeff"
        d="M23,53c-1.657,0-3-1.343-3-3c0-16.542,13.458-30,30-30c1.657,0,3,1.343,3,3s-1.343,3-3,3	c-13.233,0-24,10.767-24,24C26,51.658,24.657,53,23,53z" />
    <path fill="#40396e"
        d="M50,89c-21.505,0-39-17.495-39-39s17.495-39,39-39s39,17.495,39,39S71.505,89,50,89z M50,14	C30.149,14,14,30.15,14,50s16.149,36,36,36s36-16.149,36-36S69.851,14,50,14z" />
</svg>