<svg xmlns="http://www.w3.org/2000/svg" baseProfile="basic" viewBox="0 0 100 100">
    <path
        d="M88.7529297,74.4541016C93.3999023,68.0322266,96,60.0810547,96,51.9970703 c0-12.59375-6.0424805-24.2392578-16.1630859-31.1523438c-1.5893555-1.0859375-3.4462891-1.6601562-5.3701172-1.6601562 c-0.7734375,0-1.5458984,0.0947266-2.284668,0.2792969c-2.6240234,0.6484375-4.8540039,2.3896484-6.1176758,4.7763672 c-0.6503906,1.2285156-1.0063477,2.5390625-1.0893555,3.8476562c-2.5024414,0.6884766-4.6210938,2.3681641-5.9052734,4.7460938 c-0.5844727,1.109375-0.9296875,2.2871094-1.0488281,3.4716797C58.0141602,36.3066406,58.0068359,36.3085938,58,36.3095703 V21.5107422c0-3.5839844-2.9160156-6.5-6.5-6.5h-7.3935547c-3.4633789,0-6.3027344,2.7226562-6.4902344,6.1396484 l-1.1430664,1.0244141l-8.3847656-8.3847656c-1.9082031-1.9082031-4.4472656-2.9589844-7.1499023-2.9589844 c-2.7021484,0-5.2412109,1.0507812-7.1499023,2.9589844c-3.940918,3.9423828-3.940918,10.3564453,0.0009766,14.2978516 L20.7011719,35H14.5C10.9160156,35,8,37.9160156,8,41.5v21c0,3.5839844,2.9160156,6.5,6.5,6.5h7.487793l15.628418,13.8486328 c0.1870117,3.4179688,3.0268555,6.140625,6.4902344,6.140625H51.5c3.5839844,0,6.5-2.9160156,6.5-6.5V72.2988281 l17.9116211,17.9111328c1.9082031,1.9082031,4.4458008,2.9589844,7.1455078,2.9589844h0.0039062 c2.7016602,0,5.2407227-1.0507812,7.1503906-2.9589844c3.940918-3.9423828,3.940918-10.3564453-0.0009766-14.2978516 L88.7529297,74.4541016z"
        opacity=".35" />
    <path fill="#F2F2F2"
        d="M86.7529297,72.4541016C91.3999023,66.0322266,94,58.0810547,94,49.9970703 c0-12.59375-6.0424805-24.2392578-16.1630859-31.1523438c-1.5893555-1.0859375-3.4462891-1.6601562-5.3701172-1.6601562 c-0.7734375,0-1.5458984,0.0947266-2.284668,0.2792969c-2.6240234,0.6484375-4.8540039,2.3896484-6.1176758,4.7763672 c-0.6503906,1.2285156-1.0063477,2.5390625-1.0893555,3.8476562c-2.5024414,0.6884766-4.6210938,2.3681641-5.9052734,4.7460938 c-0.5844727,1.109375-0.9296875,2.2871094-1.0488281,3.4716797C56.0141602,34.3066406,56.0068359,34.3085938,56,34.3095703 V19.5107422c0-3.5839844-2.9160156-6.5-6.5-6.5h-7.3935547c-3.4633789,0-6.3027344,2.7226562-6.4902344,6.1396484 l-1.1430664,1.0244141l-8.3847656-8.3847656c-1.9082031-1.9082031-4.4472656-2.9589844-7.1499023-2.9589844 c-2.7021484,0-5.2412109,1.0507812-7.1499023,2.9589844c-3.940918,3.9423828-3.940918,10.3564453,0.0009766,14.2978516 L18.7011719,33H12.5C8.9160156,33,6,35.9160156,6,39.5v21c0,3.5839844,2.9160156,6.5,6.5,6.5h7.487793l15.628418,13.8486328 c0.1870117,3.4179688,3.0268555,6.140625,6.4902344,6.140625H49.5c3.5839844,0,6.5-2.9160156,6.5-6.5V70.2988281 l17.9116211,17.9111328c1.9082031,1.9082031,4.4458008,2.9589844,7.1455078,2.9589844h0.0039062 c2.7016602,0,5.2407227-1.0507812,7.1503906-2.9589844c3.940918-3.9423828,3.940918-10.3564453-0.0009766-14.2978516 L86.7529297,72.4541016z" />
    <rect width="6.808" height="61" x="43.596" y="19.5" fill="#9AA2E6" />
    <polygon fill="#707CC0"
        points="43.5960007,79.6070023 22.9050007,60.8600006 22.9050007,40.625 43.5960007,20.3929996" />
    <rect width="10.405" height="21" x="12.5" y="39.5" fill="#9AA2E6" />
    <path fill="#70BFFF"
        d="M59.7070007,41.2480011c-1.7190018-1.3009987-4.2060013-0.4710007-4.7509995,1.6150017l0,0 c-0.3079987,1.1790009,0.132,2.4239998,1.1080017,3.1529999c1.2270012,0.9169998,1.9959984,2.3779984,1.9959984,3.9819984 s-0.769001,3.0649986-1.9970016,3.9830017c-0.9770012,0.7299995-1.4160004,1.9749985-1.1080017,3.1539993 c0.5449982,2.0859985,3.0320015,2.9140015,4.7509995,1.612999c2.6790009-2.0279999,4.3530006-5.2340012,4.3530006-8.75 C64.060997,46.480999,62.3860016,43.2750015,59.7070007,41.2480011z" />
    <path fill="#70BFFF"
        d="M67.2470016,32.8380013c-1.4449997-1.1040001-3.5489998-0.5999985-4.413002,1l-0.0009995,0.0029984 c-0.7039986,1.3050003-0.3349991,2.9099998,0.8390007,3.8170013c3.7869987,2.9269981,6.0560036,7.4609985,6.0560036,12.3400002 c0,4.8590012-2.2549973,9.3789978-6.0169983,12.3059998c-1.1710014,0.9109993-1.5369987,2.5159988-0.8289986,3.8199997 l0.0009995,0.0029984c0.868,1.5979996,2.9730034,2.0970001,4.4149971,0.9889984 c5.2689972-4.0489998,8.4309998-10.3450012,8.4309998-17.1170006 C75.7279968,43.1990013,72.5469971,36.887001,67.2470016,32.8380013z" />
    <path fill="#70BFFF"
        d="M74.1699982,24.2110004c-1.4830017-1.0130005-3.5209961-0.5160007-4.3610001,1.0709991 c-0.7109985,1.3430004-0.3069992,3.0100002,0.9489975,3.8649998C77.4440002,33.7029991,81.5,41.4659996,81.5,49.9980011 c0,8.5340004-4.0559998,16.2969971-10.7409973,20.8509979c-1.2549973,0.8550034-1.6589966,2.5209961-0.9489975,3.8639984 c0.8399963,1.5879974,2.8769989,2.0849991,4.3600006,1.0719986c8.2969971-5.6669998,13.3300018-15.2639999,13.3300018-25.788002 C87.5,39.4760017,82.4670029,29.8789997,74.1699982,24.2110004z" />
    <rect width="95.075" height="4.31" x="2.463" y="47.845" fill="#F4665C" transform="rotate(45 50 50)" />
    <path fill="#40396E"
        d="M81.0610352,86.1689453c-1.309082,0.0009766-2.6176758-0.4980469-3.6137695-1.4941406L51,58.2275391 v22.2617188c0,0.828125-0.6713867,1.5-1.5,1.5h-7.3935547c-0.8286133,0-1.5-0.671875-1.5-1.5v-1.8994141L21.8842773,62H12.5 c-0.8286133,0-1.5-0.671875-1.5-1.5v-21c0-0.828125,0.6713867-1.5,1.5-1.5h9.5649414l4.59375-4.1132812L15.3251953,22.5527344 c-1.9921875-1.9921875-1.9921875-5.2353516-0.0004883-7.2275391c1.9931641-1.9931641,5.2358398-1.9921875,7.2280273,0 l11.730957,11.7314453l6.3227539-5.6630859v-1.8828125c0-0.828125,0.6713867-1.5,1.5-1.5H49.5c0.8286133,0,1.5,0.671875,1.5,1.5 v24.2617188L56.4775391,49.25c-0.1791992-0.8037109-0.6420898-1.5322266-1.3115234-2.0332031 c-1.4731445-1.0986328-2.1254883-2.9570312-1.6611328-4.7324219c0.3798828-1.4541016,1.4536133-2.6162109,2.8720703-3.1083984 c1.4345703-0.4970703,3.019043-0.2441406,4.2353516,0.6757812c3.0996094,2.3457031,4.9487305,6.0644531,4.9467773,9.9472656 c0,2.3105469-0.6323242,4.53125-1.840332,6.4921875l1.7900391,1.7900391 c1.7626953-2.4082031,2.7192383-5.296875,2.7192383-8.2832031c0-4.3994141-1.9951172-8.4648438-5.4731445-11.1533203 c-1.7573242-1.3574219-2.2841797-3.7402344-1.262207-5.6787109C61.5,33.1523438,61.5068359,33.1386719,61.5141602,33.125 c0.6313477-1.1679688,1.7382812-1.9980469,3.0380859-2.2773438c1.2709961-0.2734375,2.5844727,0.0185547,3.6049805,0.7978516 c5.6796875,4.3388672,9.0708008,11.2001953,9.0717773,18.3535156c0,5.4033203-1.8701172,10.5722656-5.2944336,14.7080078 l1.7006836,1.7001953C77.6962891,62.0722656,80,56.1728516,80,49.9980469c0-7.9755859-3.7709961-15.3076172-10.0869141-19.6123047 c-1.887207-1.2841797-2.5019531-3.7802734-1.4296875-5.8056641c0.5986328-1.1308594,1.6547852-1.9550781,2.8989258-2.2626953 c1.2480469-0.3115234,2.5722656-0.0703125,3.6333008,0.6552734C83.7724609,28.9541016,89,39.0566406,89,49.9970703 c0,8.5498047-3.2626953,16.7626953-9,22.7753906l4.6748047,4.6748047c1.9921875,1.9921875,1.9921875,5.2353516,0.0004883,7.2275391 C83.6787109,85.6708984,82.3696289,86.1689453,81.0610352,86.1689453z M49.4995117,53.1064453 c0.390625,0,0.7744141,0.1523438,1.0610352,0.4394531l29.0078125,29.0078125c0.8232422,0.8222656,2.1621094,0.8222656,2.9853516,0 c0.8227539-0.8232422,0.8227539-2.1621094-0.0004883-2.9853516l-5.7358398-5.7363281 c-0.2861328-0.2861328-0.4443359-0.6757812-0.4394531-1.0800781c0.0053711-0.4042969,0.1738281-0.7900391,0.4672852-1.0683594 C82.6630859,66.1591797,86,58.2548828,86,49.9970703c0-9.9482422-4.7387695-19.125-12.6762695-24.5478516 C72.9614258,25.203125,72.527832,25.125,72.1025391,25.2294922c-0.421875,0.1044922-0.7651367,0.3720703-0.9677734,0.7539062 c-0.355957,0.6728516-0.1552734,1.5,0.4667969,1.9228516C78.7392578,32.7705078,83,41.0292969,83,49.9980469 c0,7.5039062-3.0395508,14.65625-8.3393555,19.625c-0.5908203,0.5527344-1.5136719,0.5400391-2.0864258-0.0341797 l-3.7568359-3.7568359c-0.5727539-0.5722656-0.5874023-1.4970703-0.0332031-2.0869141 c3.5112305-3.7392578,5.4448242-8.6210938,5.4448242-13.7460938c-0.0009766-6.2246094-2.9511719-12.1943359-7.8925781-15.96875 c-0.4414062-0.3388672-0.9116211-0.3007812-1.1538086-0.25c-0.4321289,0.09375-0.8007812,0.3652344-1.0161133,0.7480469 c-0.0043945,0.0078125-0.0087891,0.0166016-0.0131836,0.0244141c-0.3491211,0.6464844-0.1655273,1.4541016,0.4360352,1.9189453 c4.21875,3.2607422,6.6386719,8.1904297,6.6386719,13.5263672c0,4.2607422-1.5996094,8.3535156-4.5048828,11.5253906 c-0.2763672,0.3017578-0.6640625,0.4775391-1.0727539,0.4873047c-0.4169922,0.0039062-0.8046875-0.1494141-1.09375-0.4394531 l-3.8413086-3.8408203c-0.5327148-0.5322266-0.5878906-1.3769531-0.1293945-1.9736328 c1.2910156-1.6816406,1.9731445-3.6728516,1.9731445-5.7587891c0.0014648-2.9482422-1.402832-5.7724609-3.7573242-7.5537109 c-0.4223633-0.3203125-0.9487305-0.4072266-1.4423828-0.2333984c-0.4770508,0.1650391-0.8237305,0.5410156-0.9521484,1.03125 c-0.1538086,0.5888672,0.0634766,1.2050781,0.5537109,1.5712891c1.6279297,1.2167969,2.5991211,3.1542969,2.5991211,5.1845703 c0,1.0625-0.2700195,2.1230469-0.7802734,3.0683594c-0.2250977,0.4169922-0.6342773,0.703125-1.1030273,0.7714844 c-0.4692383,0.0673828-0.9428711-0.0888672-1.2773438-0.4238281l-7.9599609-7.9599609 C48.1582031,45.1728516,48,44.7910156,48,44.3935547V21.0107422h-4.3935547v1.0527344 c0,0.4267578-0.1816406,0.8330078-0.4990234,1.1171875l-7.8793945,7.0576172 c-0.5932617,0.53125-1.4985352,0.5068359-2.0615234-0.0566406L20.4316406,17.4462891 c-0.8232422-0.8222656-2.1621094-0.8222656-2.9853516,0c-0.8227539,0.8232422-0.8227539,2.1621094,0.0004883,2.9853516 l12.4536133,12.4541016c0.2915039,0.2910156,0.4501953,0.6894531,0.4389648,1.1015625s-0.1918945,0.8017578-0.4990234,1.0761719 l-6.2011719,5.5537109C23.3642578,40.8632812,23.0078125,41,22.6386719,41H14v18h8.453125 c0.3666992,0,0.7202148,0.1337891,0.9946289,0.3769531l19.6533203,17.4150391 c0.3212891,0.2851562,0.5053711,0.6933594,0.5053711,1.1230469v1.0742188H48V54.6064453 C48,54,48.3652344,53.453125,48.9257812,53.2207031C49.1113281,53.1435547,49.3066406,53.1064453,49.4995117,53.1064453z" />
    <path fill="#40396E"
        d="M53.5,44.7553101c0.2947998,0.9271851,1.5966492,3.5584564,1.2234039,4.4149017l2.7180862,2.1595764 l-0.8138313-4.9787254L53.5,44.7553101z" />
</svg>